<?xml version="1.0" ?><svg id="line" viewBox="0 0 32 32" xmlns="http://www.w3.org/2000/svg"><defs><style>.cls-1{fill:#00df8e;}.cls-2{fill:#bfffc8;}</style></defs><title/><path class="cls-1" d="M24.7,12.28V9.7a8.7,8.7,0,0,0-17.4,0v2.58A5,5,0,0,0,3.1,17.2V26a5,5,0,0,0,5,5H23.9a5,5,0,0,0,5-5V17.2A5,5,0,0,0,24.7,12.28ZM9.3,9.7a6.7,6.7,0,0,1,13.4,0v2.5H9.3ZM26.9,26a3,3,0,0,1-3,3H8.1a3,3,0,0,1-3-3V17.2a3,3,0,0,1,3-3H23.9a3,3,0,0,1,3,3Z"/><path class="cls-2" d="M16,24.7a1,1,0,0,1-1-1V19.5a1,1,0,0,1,2,0v4.2A1,1,0,0,1,16,24.7Z"/></svg>