<?xml version="1.0" ?><svg viewBox="0 0 32 32" xmlns="http://www.w3.org/2000/svg"><defs><style>.cls-1{fill:#00df8e;}.cls-2{fill:#bfffc8;}</style></defs><title/><g id="fill"><path class="cls-1" d="M24.68,13.24V10.4A8.41,8.41,0,0,0,16.28,2h-.56a8.41,8.41,0,0,0-8.4,8.4v2.84A3.86,3.86,0,0,0,4.08,17v9.1A3.86,3.86,0,0,0,8,30h16.1a3.86,3.86,0,0,0,3.87-3.86V17A3.86,3.86,0,0,0,24.68,13.24Zm-9-9.31h.56a6.47,6.47,0,0,1,6.46,6.47v2.78H9.26V10.4A6.47,6.47,0,0,1,15.72,3.93Z"/><path class="cls-2" d="M16,24.66a1,1,0,0,1-1-1v-4.2a1,1,0,0,1,1.94,0v4.2A1,1,0,0,1,16,24.66Z"/></g></svg>