<?xml version="1.0" ?><svg style="enable-background:new 0 0 48 48;" version="1.1" viewBox="0 0 48 48" xml:space="preserve" xmlns="http://www.w3.org/2000/svg" xmlns:xlink="http://www.w3.org/1999/xlink"><g id="Padding__x26__Artboard"/><g id="Icons"><g><path d="M23.96458,12.46759c-3.21002,0-5.83002,2.62-5.83002,5.84003v3h1.75v-3    c0-2.25,1.83002-4.09003,4.09003-4.09003c2.25,0,4.07996,1.84003,4.07996,4.09003v2.98999h1.75v-2.98999    C29.80455,15.08759,27.18455,12.46759,23.96458,12.46759z" style="fill:#FFFFFF;"/><path d="M29.79987,18.30681v2.98999h-1.75v-2.98999c0-1.61999-0.77563-3.12002-2.1557-3.77002    c-1.04929-0.4942-2.19535-0.94169-3.38022-0.77247c-1.41039,0.20143-2.78262,0.99135-3.59915,2.16798    c-0.07525,0.10841-0.10797,0.12702-0.2001,0.09096c-0.01777-0.00695-0.09106-0.20798-0.15738-0.07767    c0.44253-0.86953,1.24639-1.63049,2.01982-2.20445c0.82046-0.60885,1.77808-1.08845,2.79812-1.23232    c0.19361-0.02731,0.38903-0.04204,0.58459-0.04204C27.17987,12.46678,29.79987,15.08678,29.79987,18.30681z" style="fill:#B9D4F8;"/><path d="M25.71985,14.62682c-0.13-0.07001-0.26996-0.13-0.40997-0.17999    c0.06,0.01996,0.12,0.03998,0.16998,0.06C25.55988,14.5468,25.6399,14.58678,25.71985,14.62682z" style="fill:#659BDB;"/><path d="M29.83173,18.71367l-0.03186,2.58313h-1.75v-2.98999c0-0.71002-0.47626-2.31-0.79626-2.89001    c0.70313,0.46875,1.98499,2.15448,2.57813,3.25683C29.95173,18.40923,29.83173,18.67363,29.83173,18.71367z" style="fill:#659BDB;"/><path d="M32.3299,26.92681c0-0.03003,0-0.06-0.01001-0.09003    c-0.07001-1.82001-0.73999-3.47998-1.81-4.82001c-0.27002-0.33997-0.57001-0.65997-0.90002-0.94995    c-0.01001-0.02002-0.02002-0.03003-0.03998-0.04004c-1.47003-1.31-3.41003-2.10999-5.54004-2.10999    c-4.58997,0-8.31,3.71997-8.31,8.31s3.72003,8.31,8.31,8.31c4.59003,0,8.31-3.71997,8.31-8.31    C32.33985,27.12682,32.33985,27.02678,32.3299,26.92681z M24.02985,24.96678c0.38,0,0.70001,0.32001,0.70001,0.70001v3.10999    c0,0.10999-0.02002,0.21002-0.07001,0.29004c-0.10999,0.25-0.34998,0.40997-0.63,0.40997c-0.38995,0-0.70996-0.31-0.70996-0.70001    V25.6668c0-0.28998,0.19-0.54999,0.44995-0.65002C23.84986,24.9868,23.93988,24.96678,24.02985,24.96678z" style="fill:#FFFFFF;"/><path d="M32.26984,26.94683c0-0.01001,0-0.01001,0-0.02002c-0.06-1.71002-0.67999-3.27002-1.68994-4.54004    c-1.06006-1.31-2.53003-2.26996-4.23004-2.67999c-0.02997,0-0.04999,0-0.07001-0.00995c-0.54999-0.12006-1.13-0.19-1.71997-0.19    c-4.26001,0-7.71002,3.45996-7.71002,7.71997s3.45001,7.72003,7.71002,7.72003c4.27002,0,7.71997-3.46002,7.71997-7.72003    C32.27985,27.13677,32.27985,27.03679,32.26984,26.94683z M24.54642,29.30716c-0.41687,0.39091-1.28651,0.11509-1.28653-0.53037    V25.6668c0-0.38,0.32001-0.70001,0.71039-0.70001c0.40149,0.00031,0.79629,0.11891,0.78042,0.573    c-0.02035,0.58246-0.05187,1.16461-0.06182,1.74748c-0.00969,0.56812,0.22647,1.21494,0.02185,1.76826    C24.67253,29.15874,24.61573,29.24216,24.54642,29.30716z" style="fill:#B9D4F8;"/><path d="M30.55988,21.94683c-0.29004-0.32001-0.60004-0.62006-0.95001-0.88    c-0.01001-0.02002-0.02002-0.03003-0.03998-0.04004c-0.86005-0.65997-1.89001-1.12-3-1.32001    c-0.03003,0-0.05005,0-0.07001-0.00995c-0.38-0.06006-0.76001-0.09003-1.15002-0.09003c-3.85999,0-6.98999,3.13-6.98999,6.98999    s3.13,6.98999,6.98999,6.98999c3.79004,0,6.85999-3,6.97003-6.75c0.01001-0.02997,0.01001-0.06,0.01001-0.08997    c0-0.01001,0-0.01001,0-0.02002c0.00995-0.03998,0.00995-0.09003,0.00995-0.13    C32.33985,24.81682,31.67987,23.18682,30.55988,21.94683z M24.93988,28.52678c0,0.20001-0.09003,0.39001-0.23999,0.51001    c0,0,0,0-0.01001,0l-0.03003,0.03003c-0.10999,0.25-0.34998,0.40997-0.63,0.40997c-0.38995,0-0.70996-0.31-0.70996-0.70001    V25.6668c0-0.28998,0.19-0.54999,0.44995-0.65002c0.12006-0.12,0.30005-0.19995,0.48004-0.19995    c0.16998,0,0.33002,0.06,0.44,0.16998c0.14996,0.13,0.25,0.31,0.25,0.51001V28.52678z" style="fill:#659BDB;"/><path d="    M19.88075,19.88929v-1.58608c0-2.25,1.83-4.09,4.09-4.09c2.25,0,4.08,1.84,4.08,4.09v1.53821 M18.13075,21.30321v-3    c0-3.22,2.62-5.84,5.83-5.84c3.22,0,5.84,2.62,5.84,5.84v2.99" style="fill:none;stroke:#1B4A9A;stroke-width:0.7;stroke-linecap:round;stroke-linejoin:round;stroke-miterlimit:10;"/><circle cx="23.97015" cy="27.22321" r="8.31" style="fill:none;stroke:#1B4A9A;stroke-width:0.7;stroke-linecap:round;stroke-linejoin:round;stroke-miterlimit:10;"/><path d="    M20.66152,32.45751c-1.80714-1.1124-3.01198-3.10874-3.01198-5.3865" style="fill:none;stroke:#1B4A9A;stroke-width:0.7;stroke-linecap:round;stroke-linejoin:round;stroke-miterlimit:10;"/><path d="    M23.26278,33.35248c-0.36865-0.04105-0.72773-0.11382-1.07445-0.21549" style="fill:none;stroke:#1B4A9A;stroke-width:0.7;stroke-linecap:round;stroke-linejoin:round;stroke-miterlimit:10;"/><path d="    M23.97015,29.4812L23.97015,29.4812c-0.38903,0-0.70732-0.31829-0.70732-0.70732v-3.10133    c0-0.38903,0.31829-0.70732,0.70732-0.70732l0,0c0.38903,0,0.70732,0.31829,0.70732,0.70732v3.10133    C24.67747,29.1629,24.35918,29.4812,23.97015,29.4812z" style="fill:none;stroke:#1B4A9A;stroke-width:0.7;stroke-linecap:round;stroke-linejoin:round;stroke-miterlimit:10;"/></g></g></svg>