<?xml version="1.0" ?><svg enable-background="new 0 0 64 64" height="64px" version="1.1" viewBox="0 0 64 64" width="64px" xml:space="preserve" xmlns="http://www.w3.org/2000/svg" xmlns:xlink="http://www.w3.org/1999/xlink"><g id="Layer_1"><g><circle cx="32" cy="32" fill="#4F5D73" r="32"/></g><g opacity="0.2"><g><path d="M10,34c0,12.15,9.85,22,22,22s22-9.85,22-22s-9.85-22-22-22S10,21.85,10,34z M44,34     c0,6.627-5.373,12-12,12c-6.627,0-12-5.373-12-12s5.373-12,12-12C38.627,22,44,27.373,44,34z" fill="#231F20"/></g></g><g><g><path d="M10,32c0,12.15,9.85,22,22,22s22-9.85,22-22s-9.85-22-22-22S10,19.85,10,32z M44,32     c0,6.627-5.373,12-12,12c-6.627,0-12-5.373-12-12s5.373-12,12-12C38.627,20,44,25.373,44,32z" fill="#FFFFFF"/></g></g><g opacity="0.2"><path d="M27.934,22.863c0.879,0.879,0.913,2.269,0.076,3.106l-4.041,4.041c-0.837,0.837-2.228,0.803-3.106-0.076    l-7.425-7.425c-0.879-0.879-0.913-2.269-0.076-3.106l4.041-4.041c0.837-0.837,2.228-0.803,3.106,0.076L27.934,22.863z" fill="#231F20"/></g><g opacity="0.2"><path d="M50.562,45.49c0.879,0.879,0.913,2.269,0.076,3.106l-4.041,4.041c-0.837,0.837-2.228,0.803-3.106-0.076    l-7.425-7.425c-0.879-0.879-0.913-2.269-0.076-3.106l4.041-4.041c0.837-0.837,2.228-0.803,3.106,0.076L50.562,45.49z" fill="#231F20"/></g><g opacity="0.2"><path d="M43.137,29.934c-0.879,0.879-2.269,0.913-3.106,0.076l-4.041-4.041c-0.837-0.837-0.803-2.228,0.076-3.106    l7.425-7.425c0.879-0.879,2.269-0.913,3.106-0.076l4.041,4.041c0.837,0.837,0.803,2.228-0.076,3.106L43.137,29.934z" fill="#231F20"/></g><g opacity="0.2"><path d="M20.51,52.562c-0.879,0.879-2.269,0.913-3.106,0.076l-4.041-4.041c-0.837-0.837-0.803-2.228,0.076-3.106    l7.425-7.425c0.879-0.879,2.269-0.913,3.106-0.076l4.041,4.041c0.837,0.837,0.803,2.228-0.076,3.106L20.51,52.562z" fill="#231F20"/></g><g><path d="M27.934,20.863c0.879,0.879,0.913,2.269,0.076,3.106l-4.041,4.041c-0.837,0.837-2.228,0.803-3.106-0.076    l-7.425-7.425c-0.879-0.879-0.913-2.269-0.076-3.106l4.041-4.041c0.837-0.837,2.228-0.803,3.106,0.076L27.934,20.863z" fill="#E0995E"/></g><g><path d="M50.562,43.49c0.879,0.879,0.913,2.269,0.076,3.106l-4.041,4.041c-0.837,0.837-2.228,0.803-3.106-0.076    l-7.425-7.425c-0.879-0.879-0.913-2.269-0.076-3.106l4.041-4.041c0.837-0.837,2.228-0.803,3.106,0.076L50.562,43.49z" fill="#E0995E"/></g><g><path d="M43.137,27.934c-0.879,0.879-2.269,0.913-3.106,0.076l-4.041-4.041c-0.837-0.837-0.803-2.228,0.076-3.106    l7.425-7.425c0.879-0.879,2.269-0.913,3.106-0.076l4.041,4.041c0.837,0.837,0.803,2.228-0.076,3.106L43.137,27.934z" fill="#E0995E"/></g><g><path d="M20.51,50.562c-0.879,0.879-2.269,0.913-3.106,0.076l-4.041-4.041c-0.837-0.837-0.803-2.228,0.076-3.106    l7.425-7.425c0.879-0.879,2.269-0.913,3.106-0.076l4.041,4.041c0.837,0.837,0.803,2.228-0.076,3.106L20.51,50.562z" fill="#E0995E"/></g></g><g id="Layer_2"/></svg>